M48
INCH,TZ
T1C0.043
T2C0.047
T3C0.051
T4C0.055
T5C0.060
T6C0.098
%
G90
G05
T1
X32600Y-28500
X32600Y-29500
X32600Y-30500
X32600Y-31500
X32600Y-32500
X32600Y-33500
X32600Y-43500
X32600Y-43500
X32600Y-44500
X32600Y-44500
X32600Y-45500
X32600Y-45500
X32600Y-46500
X32600Y-46500
X32600Y-47500
X32600Y-47500
X32700Y-43500
X32700Y-43500
X32700Y-44500
X32700Y-44500
X32700Y-45500
X32700Y-45500
X32700Y-46500
X32700Y-46500
X32700Y-47500
X32700Y-47500
X40200Y-28700
X40200Y-29700
X40200Y-30700
X40200Y-31700
X40200Y-32700
X40200Y-33700
X40200Y-43700
X40200Y-43700
X40200Y-44700
X40200Y-44700
X40200Y-45700
X40200Y-45700
X40200Y-46700
X40200Y-46700
X40200Y-47700
X40200Y-47700
X40300Y-43700
X40300Y-43700
X40300Y-44700
X40300Y-44700
X40300Y-45700
X40300Y-45700
X40300Y-46700
X40300Y-46700
X40300Y-47700
X40300Y-47700
T2
X28700Y-26200
X28700Y-32200
X28700Y-33600
X28700Y-39600
X35900Y-30800
X35900Y-36800
X37300Y-36800
X37300Y-42800
T3
X31600Y-26900
X33600Y-26900
X40100Y-26300
X42100Y-26300
X44400Y-26600
X44400Y-47600
X45400Y-26600
X45400Y-47600
X46400Y-26600
X46400Y-47600
X47400Y-26600
X47400Y-47600
X48400Y-26600
X48400Y-47600
X49400Y-26600
X49400Y-47600
X50400Y-26600
X50400Y-47600
X51400Y-26600
X51400Y-47600
X52400Y-26600
X52400Y-47600
X58200Y-26600
X58200Y-47600
X59200Y-26600
X59200Y-47600
X60200Y-26600
X60200Y-47600
X61200Y-26600
X61200Y-47600
X62200Y-26600
X62200Y-47600
X63200Y-26600
X63200Y-47600
X64200Y-26600
X64200Y-47600
X65200Y-26600
X65200Y-47600
X66200Y-26600
X66200Y-47600
X70200Y-28900
X70200Y-37758
X70300Y-39700
X70300Y-48558
T4
X68835Y-50800
X71000Y-50800
T5
X28000Y-50700
X28700Y-41800
X28700Y-43800
X28700Y-45800
X28700Y-47800
X30000Y-50700
X32000Y-50700
X34000Y-50700
X36600Y-50600
X38600Y-50600
X40600Y-50600
X42600Y-50600
X45300Y-50600
X47300Y-50600
X49300Y-50600
X51300Y-50600
X59000Y-50600
X61000Y-50600
X63000Y-50600
X65000Y-50600
T6
X32600Y-37400
X32600Y-41400
T0
M30
